<svg width="24" height="24" viewBox="0 0 24 24" fill="none" xmlns="http://www.w3.org/2000/svg">
<g clip-path="url(#clip0_2001_5)">
<path d="M16 2.81334C15.8745 2.68869 15.7046 2.61901 15.5276 2.61963C15.3507 2.62026 15.1813 2.69113 15.0567 2.81667C14.932 2.94221 14.8623 3.11212 14.863 3.28903C14.8636 3.46594 14.9345 3.63535 15.06 3.76L18.7667 7.42H10.1C8.43098 7.38531 6.80008 7.92111 5.47682 8.93885C4.15356 9.95659 3.21714 11.3954 2.82232 13.0174C2.4275 14.6394 2.59792 16.3476 3.3054 17.8596C4.01288 19.3717 5.21509 20.5971 6.71333 21.3333C6.87423 21.4156 7.0612 21.4305 7.23311 21.3749C7.40502 21.3192 7.54778 21.1976 7.63 21.0367C7.71222 20.8758 7.72715 20.6888 7.67151 20.5169C7.61588 20.345 7.49423 20.2022 7.33333 20.12C6.33863 19.6265 5.50037 18.8667 4.91187 17.9251C4.32336 16.9835 4.00769 15.897 4 14.7867C4.01409 13.1847 4.66264 11.6536 5.80355 10.529C6.94445 9.40432 8.48466 8.77779 10.0867 8.78667H18.7533L15.06 12.44C14.9849 12.5697 14.9556 12.7208 14.9769 12.8692C14.9982 13.0175 15.0689 13.1543 15.1775 13.2575C15.2862 13.3608 15.4264 13.4244 15.5756 13.4382C15.7248 13.4519 15.8743 13.415 16 13.3333L21.3333 8.06L16 2.81334Z" fill="black"/>
</g>
<defs>
<clipPath id="clip0_2001_5">
<rect width="24" height="24" fill="white"/>
</clipPath>
</defs>
</svg>
