<svg width="24" height="24" viewBox="0 0 24 24" fill="none" xmlns="http://www.w3.org/2000/svg">
<g clip-path="url(#clip0_2001_2)">
<path d="M13.9133 7.42667H5.24666L8.95333 3.76667C9.07975 3.64025 9.15077 3.46878 9.15077 3.29C9.15077 3.11121 9.07975 2.93975 8.95333 2.81333C8.82691 2.68691 8.65545 2.61589 8.47666 2.61589C8.29788 2.61589 8.12642 2.68691 8 2.81333L2.66666 8.08667L8 13.3333C8.12553 13.458 8.29545 13.5277 8.47235 13.527C8.64926 13.5264 8.81868 13.4555 8.94333 13.33C9.06798 13.2045 9.13766 13.0346 9.13703 12.8576C9.13641 12.6807 9.06553 12.5113 8.94 12.3867L5.24 8.76H13.9067C15.5087 8.75112 17.0489 9.37765 18.1898 10.5023C19.3307 11.627 19.9792 13.158 19.9933 14.76C19.9856 15.8704 19.67 16.9568 19.0815 17.8984C18.493 18.84 17.6547 19.5999 16.66 20.0933C16.4956 20.1764 16.3709 20.3215 16.3134 20.4965C16.2849 20.5832 16.2738 20.6746 16.2806 20.7656C16.2875 20.8565 16.3122 20.9452 16.3533 21.0267C16.3945 21.1081 16.4513 21.1806 16.5204 21.2401C16.5896 21.2996 16.6698 21.3448 16.7565 21.3733C16.9315 21.4308 17.1222 21.4164 17.2867 21.3333C18.7648 20.5875 19.947 19.3634 20.6409 17.8602C21.3349 16.357 21.4998 14.6633 21.1088 13.0545C20.7178 11.4457 19.794 10.0165 18.4875 8.99956C17.181 7.98258 15.5689 7.43762 13.9133 7.45333V7.42667Z" fill="black"/>
</g>
<defs>
<clipPath id="clip0_2001_2">
<rect width="24" height="24" fill="white"/>
</clipPath>
</defs>
</svg>
